#N canvas 647 0 1264 988 12;
#X obj 41 45 metro;
#X floatatom 73 24 5 0 0 0 - - -;
#X obj 41 26 tgl 15 0 empty empty empty 17 7 0 10 -262144 -1 -1 0 1
;
#X msg 210 35 \; Cmajor 0 48 50 52 53 55 57 59 60 62 64 65 67 69 71
72 74 76 77 79 81 83 84 86 88 89 91 93 95 96, f 23;
#X obj 208 7 table Cmajor 27;
#X floatatom 37 267 5 0 0 0 - - -;
#X obj 37 297 osc~;
#X obj 39 120 drunk;
#X msg 67 87 13 27 4;
#X obj 44 226 tabread Cmajor;
#X connect 0 0 7 0;
#X connect 1 0 0 1;
#X connect 2 0 0 0;
#X connect 5 0 6 0;
#X connect 7 0 9 0;
#X connect 8 0 7 0;
#X connect 9 0 5 0;
