#N canvas 520 174 1230 831 10;
#X obj 18 -247 cnv 15 400 190 empty empty chord 20 12 0 14 -261234
-66577 0;
#X text 209 -159 toggle r inlet to enable minor;
#X obj 204 -197 tgl 30 0 empty empty minor 0 15 0 10 -232576 -1 -1
1 1;
#X floatatom 117 -197 5 0 0 0 - - -, f 5;
#N canvas 978 262 693 569 random-chord 0;
#X obj 71 460 outlet root;
#X obj 221 463 outlet minor;
#X obj 67 13 inlet speed;
#X obj 160 9 loadbang;
#X obj 160 33 tgl 15 0 empty empty empty 17 7 0 10 -262144 -1 -1 1
1;
#X obj 160 57 metro;
#X floatatom 82 154 5 0 0 0 - - -, f 5;
#X floatatom 160 131 5 0 0 0 - - -, f 5;
#X obj 160 108 random 2;
#X msg 190 32 2400;
#X obj 82 108 random 22;
#X obj 82 131 + 50;
#X msg 233 33 600;
#X obj 246 -20 r guiButton6;
#X obj 331 -19 r guiButton7;
#X msg 263 33 300;
#X obj 415 -19 r guiButton8;
#X connect 2 0 5 1;
#X connect 3 0 4 0;
#X connect 3 0 9 0;
#X connect 4 0 5 0;
#X connect 5 0 8 0;
#X connect 5 0 10 0;
#X connect 6 0 0 0;
#X connect 7 0 1 0;
#X connect 8 0 7 0;
#X connect 9 0 5 1;
#X connect 10 0 11 0;
#X connect 11 0 6 0;
#X connect 12 0 5 1;
#X connect 13 0 9 0;
#X connect 14 0 12 0;
#X connect 15 0 5 1;
#X connect 16 0 15 0;
#X restore 117 -221 pd random-chord;
#X text 29 -157 root of chord;
#X obj 117 -135 triad-maker;
#X obj 117 -112 send masterchord;
#N canvas 622 233 688 551 bass 0;
#X obj 124 331 hsl 64 15 0 1 0 0 empty empty empty -2 -8 0 10 -262144
-1 -1 4803 1;
#X obj 141 68 loadbang;
#X obj 121 308 modulator-above50;
#X obj 123 175 phasor~;
#X obj 123 198 *~ 0.1;
#X obj 134 249 hsl 64 15 0 1 0 0 empty empty empty -2 -8 0 10 -262144
-1 -1 0 1;
#X obj 131 227 modulator-mostly0;
#X obj 97 350 vol;
#X obj 122 271 vol;
#X obj 84 123 b-chordseq;
#X msg 141 96 1000;
#X obj 54 96 r masterchord;
#X obj 97 373 throw~ mono;
#X obj 73 175 *~ 0.75;
#X obj 84 149 triangle;
#X obj 246 40 r guiButton6;
#X obj 331 41 r guiButton7;
#X obj 415 41 r guiButton8;
#X msg 181 96 250;
#X msg 221 96 125;
#X obj 350 249 ftom;
#X obj 350 295 mtof;
#X obj 335 381 vol;
#N canvas 0 94 450 300 randomStereo 0;
#X obj 108 95 crossfader1;
#X obj 93 152 vol;
#X obj 188 152 vol;
#X obj 93 175 throw~ left;
#X obj 188 175 throw~ right;
#X obj 108 67 modulator3;
#X obj 141 8 inlet~;
#X connect 0 0 1 1;
#X connect 0 1 2 1;
#X connect 1 0 3 0;
#X connect 2 0 4 0;
#X connect 5 0 0 0;
#X connect 6 0 1 0;
#X connect 6 0 2 0;
#X restore 328 426 pd randomStereo;
#X obj 350 355 r guiSlider2;
#X obj 350 272 + 19;
#N canvas 0 94 928 622 fm-triangle 0;
#X floatatom 236 89 5 0 0 0 - - -, f 5;
#X obj 236 31 inlet frequency;
#X obj 237 241 outlet~;
#X obj 419 84 osc~;
#X obj 419 130 *~;
#X obj 505 39 loadbang;
#X obj 297 373 vol;
#X obj 299 406 dac~;
#X obj 314 352 hsl 128 15 0 1 0 0 empty empty empty -2 -8 0 10 -262144
-1 -1 0 1;
#X obj 75 57 hsl 128 15 0 1500 0 0 empty empty empty -2 -8 0 10 -262144
-1 -1 0 1;
#X obj 236 191 +;
#X obj 419 154 snapshot~;
#X obj 537 121 tgl 15 0 empty empty empty 17 7 0 10 -262144 -1 -1 1
1;
#X floatatom 345 222 5 0 0 0 - - -, f 5;
#X obj 534 143 metro 0;
#X msg 419 61 8;
#X msg 434 107 3;
#X obj 236 214 triangle;
#X obj 641 255 * 50;
#X obj 641 230 r guiSlider1;
#X obj 646 80 * 50;
#X obj 646 55 r guiSlider4;
#X connect 0 0 10 0;
#X connect 1 0 0 0;
#X connect 3 0 4 0;
#X connect 4 0 11 0;
#X connect 5 0 15 0;
#X connect 5 0 16 0;
#X connect 5 0 12 0;
#X connect 6 0 7 0;
#X connect 6 0 7 1;
#X connect 8 0 6 1;
#X connect 9 0 0 0;
#X connect 10 0 13 0;
#X connect 10 0 17 0;
#X connect 11 0 10 1;
#X connect 12 0 14 0;
#X connect 14 0 11 0;
#X connect 14 0 0 0;
#X connect 15 0 3 0;
#X connect 16 0 4 1;
#X connect 17 0 2 0;
#X connect 17 0 6 0;
#X connect 18 0 4 1;
#X connect 19 0 18 0;
#X connect 20 0 3 0;
#X connect 21 0 20 0;
#X restore 336 331 pd fm-triangle;
#X connect 0 0 7 1;
#X connect 1 0 10 0;
#X connect 2 0 0 0;
#X connect 3 0 4 0;
#X connect 4 0 8 0;
#X connect 5 0 8 1;
#X connect 6 0 5 0;
#X connect 7 0 12 0;
#X connect 8 0 7 0;
#X connect 9 0 3 0;
#X connect 9 0 14 0;
#X connect 9 0 20 0;
#X connect 10 0 9 2;
#X connect 11 0 9 0;
#X connect 13 0 7 0;
#X connect 14 0 13 0;
#X connect 15 0 10 0;
#X connect 16 0 18 0;
#X connect 17 0 19 0;
#X connect 18 0 9 2;
#X connect 19 0 9 2;
#X connect 20 0 25 0;
#X connect 21 0 26 0;
#X connect 22 0 23 0;
#X connect 24 0 22 1;
#X connect 25 0 21 0;
#X connect 26 0 22 0;
#X restore 118 -23 pd bass;
#N canvas 0 94 450 300 triangleArp2 0;
#X obj 150 192 hsl 64 15 0 1 0 0 empty empty empty -2 -8 0 10 -262144
-1 -1 2441 1;
#X obj 147 170 modulator3;
#X obj 132 213 vol;
#X obj 131 109 chordseq;
#X obj 155 85 varytempo;
#X obj 131 62 r masterchord;
#N canvas 0 94 450 300 randomStereo 0;
#X obj 108 95 crossfader1;
#X obj 93 152 vol;
#X obj 188 152 vol;
#X obj 93 175 throw~ left;
#X obj 188 175 throw~ right;
#X obj 108 67 modulator3;
#X obj 141 8 inlet~;
#X connect 0 0 1 1;
#X connect 0 1 2 1;
#X connect 1 0 3 0;
#X connect 2 0 4 0;
#X connect 5 0 0 0;
#X connect 6 0 1 0;
#X connect 6 0 2 0;
#X restore 131 242 pd randomStereo;
#X obj 131 147 triangle;
#X connect 0 0 2 1;
#X connect 1 0 0 0;
#X connect 2 0 6 0;
#X connect 3 0 7 0;
#X connect 4 0 3 2;
#X connect 5 0 3 0;
#X connect 7 0 2 0;
#X restore 15 0 pd triangleArp2;
#N canvas 959 188 828 519 triangleArp1 0;
#X obj 153 161 hsl 64 15 0 1 0 0 empty empty empty -2 -8 0 10 -262144
-1 -1 727 1;
#X obj 150 139 modulator3;
#X obj 131 179 vol;
#X obj 156 66 varytempo;
#X obj 132 43 r masterchord;
#X obj 132 89 chordseq;
#N canvas 0 94 450 300 randomStereo 0;
#X obj 108 95 crossfader1;
#X obj 93 152 vol;
#X obj 188 152 vol;
#X obj 93 175 throw~ left;
#X obj 188 175 throw~ right;
#X obj 108 67 modulator3;
#X obj 141 8 inlet~;
#X connect 0 0 1 1;
#X connect 0 1 2 1;
#X connect 1 0 3 0;
#X connect 2 0 4 0;
#X connect 5 0 0 0;
#X connect 6 0 1 0;
#X connect 6 0 2 0;
#X restore 130 203 pd randomStereo;
#X obj 132 116 triangle;
#X connect 0 0 2 1;
#X connect 1 0 0 0;
#X connect 2 0 6 0;
#X connect 3 0 5 2;
#X connect 4 0 5 0;
#X connect 5 0 7 0;
#X connect 7 0 2 0;
#X restore 15 -23 pd triangleArp1;
#N canvas 0 94 450 300 waves 0;
#X obj 106 88 random-oceanwaves;
#X obj 125 132 hsl 64 15 0 1 0 0 empty empty empty -2 -8 0 10 -262144
-1 -1 4294 1;
#X obj 122 110 modulator1;
#X obj 107 153 vol;
#N canvas 0 94 450 300 randomStereo 0;
#X obj 108 95 crossfader1;
#X obj 93 152 vol;
#X obj 188 152 vol;
#X obj 93 175 throw~ left;
#X obj 188 175 throw~ right;
#X obj 108 67 modulator3;
#X obj 141 8 inlet~;
#X connect 0 0 1 1;
#X connect 0 1 2 1;
#X connect 1 0 3 0;
#X connect 2 0 4 0;
#X connect 5 0 0 0;
#X connect 6 0 1 0;
#X connect 6 0 2 0;
#X restore 107 183 pd randomStereo;
#X connect 0 0 3 0;
#X connect 1 0 3 1;
#X connect 2 0 1 0;
#X connect 3 0 4 0;
#X restore 172 -23 pd waves;
#N canvas 0 94 450 300 fastSaw 0;
#X obj 150 107 phasor~;
#X obj 150 197 vol;
#X obj 168 176 hsl 64 15 0 1 0 0 empty empty empty -2 -8 0 10 -262144
-1 -1 6007 1;
#X obj 165 153 modulator2;
#X msg 195 61 50;
#X obj 195 39 loadbang;
#X obj 150 131 lop~ 180;
#X obj 150 220 rev1~;
#X msg 188 220 5;
#X obj 150 84 chordseq;
#X obj 150 16 r masterchord;
#N canvas 0 94 450 300 randomStereo 0;
#X obj 108 95 crossfader1;
#X obj 93 152 vol;
#X obj 188 152 vol;
#X obj 93 175 throw~ left;
#X obj 188 175 throw~ right;
#X obj 108 67 modulator3;
#X obj 141 8 inlet~;
#X connect 0 0 1 1;
#X connect 0 1 2 1;
#X connect 1 0 3 0;
#X connect 2 0 4 0;
#X connect 5 0 0 0;
#X connect 6 0 1 0;
#X connect 6 0 2 0;
#X restore 147 253 pd randomStereo;
#X connect 0 0 6 0;
#X connect 1 0 7 0;
#X connect 2 0 1 1;
#X connect 3 0 2 0;
#X connect 4 0 9 2;
#X connect 5 0 4 0;
#X connect 5 0 8 0;
#X connect 6 0 1 0;
#X connect 7 0 11 0;
#X connect 8 0 7 1;
#X connect 9 0 0 0;
#X connect 10 0 9 0;
#X restore 230 -23 pd fastSaw;
#N canvas 0 94 450 300 additiveSynth 0;
#X obj 156 199 hsl 64 15 0 1 0 0 empty empty empty -2 -8 0 10 -262144
-1 -1 22 1;
#X obj 192 42 loadbang;
#X msg 192 64 500;
#X obj 153 174 *;
#X obj 224 148 modulator1;
#X obj 154 148 modulator3;
#X obj 138 120 radditivesynth2;
#X obj 138 220 vol;
#X obj 138 89 chordseq;
#X obj 138 19 r masterchord;
#N canvas 0 94 450 300 randomStereo 0;
#X obj 108 95 crossfader1;
#X obj 93 152 vol;
#X obj 188 152 vol;
#X obj 93 175 throw~ left;
#X obj 188 175 throw~ right;
#X obj 108 67 modulator3;
#X obj 141 8 inlet~;
#X connect 0 0 1 1;
#X connect 0 1 2 1;
#X connect 1 0 3 0;
#X connect 2 0 4 0;
#X connect 5 0 0 0;
#X connect 6 0 1 0;
#X connect 6 0 2 0;
#X restore 137 253 pd randomStereo;
#X connect 0 0 7 1;
#X connect 1 0 2 0;
#X connect 2 0 8 2;
#X connect 3 0 0 0;
#X connect 4 0 3 1;
#X connect 5 0 3 0;
#X connect 6 0 7 0;
#X connect 7 0 10 0;
#X connect 8 0 6 0;
#X connect 9 0 8 0;
#X restore 303 -23 pd additiveSynth;
#N canvas 0 94 450 300 polysynth 0;
#N canvas 268 206 959 462 synthesizer 0;
#X obj 262 69 unpack f f f;
#X obj 262 38 inlet pitches;
#X obj 295 325 outlet~;
#X obj 523 144 cnv 15 200 50 empty empty DEBUG 20 12 0 14 -261953 -66577
0;
#X floatatom 548 168 5 0 0 0 - - -, f 5;
#X floatatom 604 168 5 0 0 0 - - -, f 5;
#X floatatom 661 168 5 0 0 0 - - -, f 5;
#X obj 80 104 cnv 15 125 125 empty empty BASS 20 12 0 14 -204786 -66577
0;
#X obj 130 152 mtof;
#X obj 206 104 cnv 15 300 125 empty empty CHORD 20 12 0 14 -204800
-66577 0;
#X obj 238 142 mtof;
#X obj 316 142 mtof;
#X obj 393 142 mtof;
#X obj 295 280 *~ 0.25;
#X obj 130 131 - 12;
#X obj 130 197 lop~ 400;
#X obj 92 152 mtof;
#X obj 92 131 - 24;
#X obj 92 175 osc~;
#N canvas 0 94 450 300 triangle 0;
#X obj 139 102 phasor~;
#X obj 139 133 -~ 0.5;
#X obj 154 153 clip~ -0.5 0;
#X obj 139 196 +~;
#X obj 139 217 -~ 0.25;
#X obj 139 238 *~ 4;
#X obj 154 174 *~ -2;
#X text 136 37 triangle;
#X obj 139 268 outlet~;
#X obj 141 73 inlet;
#X connect 0 0 1 0;
#X connect 1 0 2 0;
#X connect 1 0 3 0;
#X connect 2 0 6 0;
#X connect 3 0 4 0;
#X connect 4 0 5 0;
#X connect 5 0 8 0;
#X connect 6 0 3 1;
#X connect 9 0 0 0;
#X restore 238 165 pd triangle;
#N canvas 0 94 450 300 triangle 0;
#X obj 139 102 phasor~;
#X obj 139 133 -~ 0.5;
#X obj 154 153 clip~ -0.5 0;
#X obj 139 196 +~;
#X obj 139 217 -~ 0.25;
#X obj 139 238 *~ 4;
#X obj 154 174 *~ -2;
#X text 136 37 triangle;
#X obj 139 268 outlet~;
#X obj 141 73 inlet;
#X connect 0 0 1 0;
#X connect 1 0 2 0;
#X connect 1 0 3 0;
#X connect 2 0 6 0;
#X connect 3 0 4 0;
#X connect 4 0 5 0;
#X connect 5 0 8 0;
#X connect 6 0 3 1;
#X connect 9 0 0 0;
#X restore 316 165 pd triangle;
#N canvas 0 94 450 300 triangle 0;
#X obj 139 102 phasor~;
#X obj 139 133 -~ 0.5;
#X obj 154 153 clip~ -0.5 0;
#X obj 139 196 +~;
#X obj 139 217 -~ 0.25;
#X obj 139 238 *~ 4;
#X obj 154 174 *~ -2;
#X text 136 37 triangle;
#X obj 139 268 outlet~;
#X obj 141 73 inlet;
#X connect 0 0 1 0;
#X connect 1 0 2 0;
#X connect 1 0 3 0;
#X connect 2 0 6 0;
#X connect 3 0 4 0;
#X connect 4 0 5 0;
#X connect 5 0 8 0;
#X connect 6 0 3 1;
#X connect 9 0 0 0;
#X restore 393 165 pd triangle;
#N canvas 0 94 450 300 sawtooth 0;
#X obj 177 109 phasor~;
#X obj 177 158 *~ 2;
#X obj 177 137 -~ 0.5;
#X text 174 35 sawtooth;
#X obj 177 82 inlet;
#X obj 177 181 outlet~;
#X connect 0 0 2 0;
#X connect 1 0 5 0;
#X connect 2 0 1 0;
#X connect 4 0 0 0;
#X restore 130 175 pd sawtooth;
#X connect 0 0 4 0;
#X connect 0 0 10 0;
#X connect 0 0 14 0;
#X connect 0 0 17 0;
#X connect 0 1 11 0;
#X connect 0 1 5 0;
#X connect 0 2 6 0;
#X connect 0 2 12 0;
#X connect 1 0 0 0;
#X connect 8 0 22 0;
#X connect 10 0 19 0;
#X connect 11 0 20 0;
#X connect 12 0 21 0;
#X connect 13 0 2 0;
#X connect 14 0 8 0;
#X connect 15 0 13 0;
#X connect 16 0 18 0;
#X connect 17 0 16 0;
#X connect 18 0 13 0;
#X connect 19 0 13 0;
#X connect 20 0 13 0;
#X connect 21 0 13 0;
#X connect 22 0 15 0;
#X restore 130 87 pd synthesizer;
#X obj 130 64 r masterchord;
#X obj 146 141 hsl 64 15 0 1 0 0 empty empty empty -2 -8 0 10 -262144
-1 -1 3173 1;
#X obj 143 119 modulator3;
#X obj 128 162 vol;
#X obj 128 185 throw~ mono;
#X connect 0 0 4 0;
#X connect 1 0 0 0;
#X connect 2 0 4 1;
#X connect 3 0 2 0;
#X connect 4 0 5 0;
#X restore 412 -23 pd polysynth;
#N canvas 2104 205 717 572 spinningArp 0;
#X obj 140 126 vline~;
#X obj 95 150 *~;
#X msg 140 103 1 50 \, 0 50 100;
#X text 170 39 chord arpeggio sequencer;
#X text 245 103 envelope;
#N canvas 0 94 450 300 triangle 0;
#X obj 139 102 phasor~;
#X obj 139 133 -~ 0.5;
#X obj 154 153 clip~ -0.5 0;
#X obj 139 196 +~;
#X obj 139 217 -~ 0.25;
#X obj 139 238 *~ 4;
#X obj 154 174 *~ -2;
#X text 136 37 triangle;
#X obj 139 268 outlet~;
#X obj 141 73 inlet;
#X connect 0 0 1 0;
#X connect 1 0 2 0;
#X connect 1 0 3 0;
#X connect 2 0 6 0;
#X connect 3 0 4 0;
#X connect 4 0 5 0;
#X connect 5 0 8 0;
#X connect 6 0 3 1;
#X connect 9 0 0 0;
#X restore 95 67 pd triangle;
#X obj 95 238 vol;
#X obj 113 219 hsl 128 15 0 1 0 0 empty empty empty -2 -8 0 10 -262144
-1 -1 11935 1;
#X obj 95 41 chordseq;
#X obj 95 15 r masterchord;
#X obj 110 198 modulator-mostly0;
#N canvas 0 94 450 300 rotateStereo 0;
#X obj 108 95 crossfader1;
#X obj 93 152 vol;
#X obj 188 152 vol;
#X obj 93 175 throw~ left;
#X obj 188 175 throw~ right;
#X obj 141 8 inlet~;
#X obj 108 67 triangle-LFO;
#X connect 0 0 1 1;
#X connect 0 1 2 1;
#X connect 1 0 3 0;
#X connect 2 0 4 0;
#X connect 5 0 1 0;
#X connect 5 0 2 0;
#X connect 6 0 0 0;
#X restore 96 265 pd rotateStereo;
#X obj 95 175 *~ 1;
#X obj 406 37 r guiSlider1;
#X obj 406 60 * 200;
#X obj 406 83 + 100;
#X connect 0 0 1 1;
#X connect 1 0 12 0;
#X connect 2 0 0 0;
#X connect 5 0 1 0;
#X connect 6 0 11 0;
#X connect 7 0 6 1;
#X connect 8 0 5 0;
#X connect 8 1 2 0;
#X connect 9 0 8 0;
#X connect 10 0 7 0;
#X connect 12 0 6 0;
#X connect 13 0 14 0;
#X connect 14 0 15 0;
#X connect 15 0 8 2;
#X restore 499 -23 pd spinningArp;
#N canvas 0 94 450 300 steadyWave 0;
#X obj 127 112 noise~;
#X obj 226 48 triangle-LFO;
#X floatatom 226 95 5 0 0 0 - - -, f 5;
#X obj 202 135 hsl 128 15 0 1 0 0 empty empty empty -2 -8 0 10 -262144
-1 -1 8131 1;
#X obj 127 158 vol;
#X obj 226 2 loadbang;
#X obj 226 71 expr ($f1*$f1);
#X obj 70 38 tgl 15 0 empty empty empty 17 7 0 10 -262144 -1 -1 0 1
;
#X obj 55 64 select 0 1;
#X msg 42 90 0;
#X msg 81 90 1;
#X obj 70 10 r guiButton3;
#X obj 127 211 throw~ mono;
#X floatatom 117 43 5 0 0 0 - - -, f 5;
#X obj 127 188 *~;
#X obj 127 135 lop~ 600;
#X msg 226 25 0.25;
#X connect 0 0 15 0;
#X connect 1 0 6 0;
#X connect 2 0 3 0;
#X connect 3 0 4 1;
#X connect 4 0 14 0;
#X connect 5 0 16 0;
#X connect 6 0 2 0;
#X connect 7 0 8 0;
#X connect 7 0 13 0;
#X connect 8 0 9 0;
#X connect 8 1 10 0;
#X connect 9 0 14 1;
#X connect 10 0 14 1;
#X connect 11 0 7 0;
#X connect 14 0 12 0;
#X connect 15 0 4 0;
#X connect 16 0 1 0;
#X connect 16 0 0 0;
#X restore 605 -23 pd steadyWave;
#N canvas 73 329 843 535 mainMixer 0;
#X obj 315 40 catch~ mono;
#X obj 140 40 catch~ left;
#X obj 229 40 catch~ right;
#X obj 295 176 hsl 128 15 0 1 0 0 empty guiSliderVolume volume -2 -8
0 10 -262144 -1 -1 5183 1;
#N canvas 0 94 450 300 vol 0;
#X obj 40 40 inlet~;
#X obj 46 246 outlet~;
#X obj 43 175 *~;
#X text 72 186 0-1;
#X obj 136 93 *;
#X obj 133 52 inlet;
#X text 165 85 left * right;
#X text 163 98 (Squares the input);
#X msg 136 134 \$1 20;
#X obj 137 170 line~;
#X text 173 130 stores input in \$1 variable;
#X text 177 142 the 20 doesn't change;
#X text 179 162 both numbers in the message box get sent to line~,
f 25;
#X connect 0 0 2 0;
#X connect 2 0 1 0;
#X connect 4 0 8 0;
#X connect 5 0 4 0;
#X connect 5 0 4 1;
#X connect 8 0 9 0;
#X connect 9 0 2 1;
#X restore 141 173 pd vol;
#N canvas 0 94 450 300 vol 0;
#X obj 40 40 inlet~;
#X obj 46 246 outlet~;
#X obj 43 175 *~;
#X text 72 186 0-1;
#X obj 136 93 *;
#X obj 133 52 inlet;
#X text 165 85 left * right;
#X text 163 98 (Squares the input);
#X msg 136 134 \$1 20;
#X obj 137 170 line~;
#X text 173 130 stores input in \$1 variable;
#X text 177 142 the 20 doesn't change;
#X text 179 162 both numbers in the message box get sent to line~,
f 25;
#X connect 0 0 2 0;
#X connect 2 0 1 0;
#X connect 4 0 8 0;
#X connect 5 0 4 0;
#X connect 5 0 4 1;
#X connect 8 0 9 0;
#X connect 9 0 2 1;
#X restore 230 173 pd vol;
#X obj 182 314 dac~;
#X obj 141 247 clip~ -1 1;
#X obj 229 248 clip~ -1 1;
#X obj 555 93 r guiButtonStartStop;
#X obj 555 122 tgl 15 0 empty empty empty 17 7 0 10 -262144 -1 -1 1
1;
#X obj 140 63 *~;
#X obj 229 63 *~;
#X obj 315 65 *~;
#X obj 556 157 select 0 1;
#X msg 584 222 0.3 1000;
#X msg 556 201 0 1000;
#X obj 559 309 line~;
#X obj 559 362 snapshot~;
#X obj 570 339 stim;
#X text 573 123 when checked \, unmute;
#X connect 0 0 13 0;
#X connect 1 0 11 0;
#X connect 2 0 12 0;
#X connect 3 0 4 1;
#X connect 3 0 5 1;
#X connect 4 0 7 0;
#X connect 5 0 8 0;
#X connect 7 0 6 0;
#X connect 8 0 6 1;
#X connect 9 0 10 0;
#X connect 10 0 14 0;
#X connect 11 0 4 0;
#X connect 12 0 5 0;
#X connect 13 0 4 0;
#X connect 13 0 5 0;
#X connect 14 0 16 0;
#X connect 14 1 15 0;
#X connect 15 0 17 0;
#X connect 16 0 17 0;
#X connect 17 0 18 0;
#X connect 18 0 11 1;
#X connect 18 0 12 1;
#X connect 18 0 13 1;
#X connect 19 0 18 0;
#X restore 21 112 pd mainMixer;
#X obj 301 101 cnv 15 700 400 empty empty empty 20 12 0 14 -249661
-66577 0;
#X obj 634 338 bng 30 250 50 0 guiButton7 empty empty 17 7 0 10 -228856
-1 -1;
#X obj 754 338 bng 30 250 50 0 guiButton13 empty empty 17 7 0 10 -228856
-1 -1;
#X obj 514 338 bng 30 250 50 0 guiButton1 empty empty 17 7 0 10 -228856
-1 -1;
#X obj 694 248 bng 30 250 50 0 guiButton9 empty empty 17 7 0 10 -228856
-1 -1;
#X obj 574 248 bng 30 250 50 0 guiButton2 empty empty 17 7 0 10 -228856
-1 -1;
#X obj 694 428 bng 30 250 50 0 guiButton12 empty empty 17 7 0 10 -228856
-1 -1;
#X obj 574 428 bng 30 250 50 0 guiButton5 empty empty 17 7 0 10 -228856
-1 -1;
#X obj 634 278 bng 30 250 50 0 guiButton6 empty empty 17 7 0 10 -228856
-1 -1;
#X obj 634 398 bng 30 250 50 0 guiButton8 empty empty 17 7 0 10 -228856
-1 -1;
#X obj 694 308 bng 30 250 50 0 guiButton10 empty empty 17 7 0 10 -228856
-1 -1;
#X obj 574 308 bng 30 250 50 0 guiButton3 empty empty 17 7 0 10 -228856
-1 -1;
#X obj 694 368 bng 30 250 50 0 guiButton11 empty empty 17 7 0 10 -228856
-1 -1;
#X obj 574 368 bng 30 250 50 0 guiButton4 empty empty 17 7 0 10 -228856
-1 -1;
#X obj 322 232 vsl 30 250 0 1 0 0 guiSlider1 empty empty 0 -9 0 10
-261234 -1 -1 2800 1;
#X obj 382 232 vsl 30 250 0 1 0 0 guiSlider2 empty empty 0 -9 0 10
-262130 -1 -1 20300 1;
#X obj 442 232 vsl 30 250 0 1 0 0 guiSlider3 empty empty 0 -9 0 10
-204786 -1 -1 0 1;
#X obj 822 232 vsl 30 250 0 1 0 0 guiSlider4 empty empty 0 -9 0 10
-203904 -1 -1 300 1;
#X obj 882 232 vsl 30 250 0 1 0 0 guiSlider5 empty empty 0 -9 0 10
-232192 -1 -1 0 1;
#X obj 942 232 vsl 30 250 0 1 0 0 guiSlider6 empty empty 0 -9 0 10
-261056 -1 -1 0 1;
#X obj 322 119 bng 90 250 50 0 guiButtonStartStop empty start/stop
5 45 0 14 -204800 -1 -258113;
#X obj 476 147 hsl 420 30 0 1 0 0 guiSliderVolume empty VOLUME 180
15 0 18 -204800 -1 -5568 17100 1;
#X connect 2 0 6 1;
#X connect 3 0 6 0;
#X connect 4 0 3 0;
#X connect 4 1 2 0;
#X connect 6 0 7 0;
#X coords 0 -1 1 1 702 402 1 300 100;
